<svg width="576" height="332" viewBox="0 0 576 332" fill="none" xmlns="http://www.w3.org/2000/svg">
<path d="M52.5405 16V284" stroke="#E2E8F0" stroke-dasharray="2 2"/>
<path d="M50.478 299.055V300.355C50.478 301.055 50.4155 301.645 50.2905 302.125C50.1655 302.605 49.9858 302.992 49.7515 303.285C49.5171 303.578 49.2339 303.791 48.9019 303.924C48.5737 304.053 48.2026 304.117 47.7886 304.117C47.4604 304.117 47.1577 304.076 46.8804 303.994C46.603 303.912 46.353 303.781 46.1304 303.602C45.9116 303.418 45.7241 303.18 45.5679 302.887C45.4116 302.594 45.2925 302.238 45.2104 301.82C45.1284 301.402 45.0874 300.914 45.0874 300.355V299.055C45.0874 298.355 45.1499 297.77 45.2749 297.297C45.4038 296.824 45.5854 296.445 45.8198 296.16C46.0542 295.871 46.3354 295.664 46.6636 295.539C46.9956 295.414 47.3667 295.352 47.7769 295.352C48.1089 295.352 48.4136 295.393 48.6909 295.475C48.9722 295.553 49.2222 295.68 49.4409 295.855C49.6597 296.027 49.8452 296.258 49.9976 296.547C50.1538 296.832 50.2729 297.182 50.355 297.596C50.437 298.01 50.478 298.496 50.478 299.055ZM49.3882 300.531V298.873C49.3882 298.49 49.3647 298.154 49.3179 297.865C49.2749 297.572 49.2104 297.322 49.1245 297.115C49.0386 296.908 48.9292 296.74 48.7964 296.611C48.6675 296.482 48.5171 296.389 48.3452 296.33C48.1772 296.268 47.9878 296.236 47.7769 296.236C47.519 296.236 47.2905 296.285 47.0913 296.383C46.8921 296.477 46.7241 296.627 46.5874 296.834C46.4546 297.041 46.353 297.312 46.2827 297.648C46.2124 297.984 46.1772 298.393 46.1772 298.873V300.531C46.1772 300.914 46.1987 301.252 46.2417 301.545C46.2886 301.838 46.3569 302.092 46.4468 302.307C46.5366 302.518 46.646 302.691 46.7749 302.828C46.9038 302.965 47.0522 303.066 47.2202 303.133C47.3921 303.195 47.5815 303.227 47.7886 303.227C48.0542 303.227 48.2866 303.176 48.4858 303.074C48.6851 302.973 48.8511 302.814 48.9839 302.6C49.1206 302.381 49.2222 302.102 49.2886 301.762C49.355 301.418 49.3882 301.008 49.3882 300.531ZM59.7476 297.66V304H58.6636V297.66H59.7476ZM59.3784 300.572V301.463C59.1597 301.545 58.937 301.619 58.7104 301.686C58.4878 301.748 58.2515 301.799 58.0015 301.838C57.7554 301.873 57.4878 301.891 57.1987 301.891C56.6987 301.891 56.2651 301.805 55.8979 301.633C55.5308 301.457 55.2476 301.193 55.0483 300.842C54.8491 300.486 54.7495 300.039 54.7495 299.5V297.648H55.8335V299.5C55.8335 299.852 55.8862 300.137 55.9917 300.355C56.0972 300.574 56.2515 300.736 56.4546 300.842C56.6577 300.943 56.9058 300.994 57.1987 300.994C57.48 300.994 57.7437 300.977 57.9897 300.941C58.2397 300.902 58.478 300.852 58.7046 300.789C58.9351 300.727 59.1597 300.654 59.3784 300.572Z" fill="#94A3B8"/>
<rect x="108.036" y="8" width="0.0001" height="300" stroke="white" stroke-dasharray="2 2"/>
<path d="M108.036 16V284" stroke="#E2E8F0" stroke-dasharray="2 2"/>
<path d="M101.989 299.939L101.122 299.717L101.55 295.469H105.927V296.471H102.47L102.212 298.791C102.368 298.701 102.565 298.617 102.804 298.539C103.046 298.461 103.323 298.422 103.636 298.422C104.03 298.422 104.384 298.49 104.696 298.627C105.009 298.76 105.274 298.951 105.493 299.201C105.716 299.451 105.886 299.752 106.003 300.104C106.12 300.455 106.179 300.848 106.179 301.281C106.179 301.691 106.122 302.068 106.009 302.412C105.899 302.756 105.733 303.057 105.511 303.314C105.288 303.568 105.007 303.766 104.667 303.906C104.331 304.047 103.935 304.117 103.478 304.117C103.134 304.117 102.808 304.07 102.499 303.977C102.194 303.879 101.921 303.732 101.679 303.537C101.44 303.338 101.245 303.092 101.093 302.799C100.944 302.502 100.851 302.154 100.812 301.756H101.843C101.89 302.076 101.983 302.346 102.124 302.564C102.265 302.783 102.448 302.949 102.675 303.062C102.905 303.172 103.173 303.227 103.478 303.227C103.735 303.227 103.964 303.182 104.163 303.092C104.362 303.002 104.53 302.873 104.667 302.705C104.804 302.537 104.907 302.334 104.978 302.096C105.052 301.857 105.089 301.59 105.089 301.293C105.089 301.023 105.052 300.773 104.978 300.543C104.903 300.312 104.792 300.111 104.644 299.939C104.499 299.768 104.321 299.635 104.11 299.541C103.899 299.443 103.657 299.395 103.384 299.395C103.021 299.395 102.745 299.443 102.558 299.541C102.374 299.639 102.185 299.771 101.989 299.939ZM115.243 297.66V304H114.159V297.66H115.243ZM114.874 300.572V301.463C114.655 301.545 114.433 301.619 114.206 301.686C113.983 301.748 113.747 301.799 113.497 301.838C113.251 301.873 112.983 301.891 112.694 301.891C112.194 301.891 111.761 301.805 111.394 301.633C111.026 301.457 110.743 301.193 110.544 300.842C110.345 300.486 110.245 300.039 110.245 299.5V297.648H111.329V299.5C111.329 299.852 111.382 300.137 111.487 300.355C111.593 300.574 111.747 300.736 111.95 300.842C112.153 300.943 112.401 300.994 112.694 300.994C112.976 300.994 113.239 300.977 113.485 300.941C113.735 300.902 113.974 300.852 114.2 300.789C114.431 300.727 114.655 300.654 114.874 300.572Z" fill="#94A3B8"/>
<path d="M163.531 16V284" stroke="#E2E8F0" stroke-dasharray="2 2"/>
<path d="M156.301 295.422V304H155.217V296.775L153.031 297.572V296.594L156.131 295.422H156.301ZM164.844 299.055V300.355C164.844 301.055 164.781 301.645 164.656 302.125C164.531 302.605 164.352 302.992 164.117 303.285C163.883 303.578 163.6 303.791 163.268 303.924C162.939 304.053 162.568 304.117 162.154 304.117C161.826 304.117 161.523 304.076 161.246 303.994C160.969 303.912 160.719 303.781 160.496 303.602C160.277 303.418 160.09 303.18 159.934 302.887C159.777 302.594 159.658 302.238 159.576 301.82C159.494 301.402 159.453 300.914 159.453 300.355V299.055C159.453 298.355 159.516 297.77 159.641 297.297C159.77 296.824 159.951 296.445 160.186 296.16C160.42 295.871 160.701 295.664 161.029 295.539C161.361 295.414 161.732 295.352 162.143 295.352C162.475 295.352 162.779 295.393 163.057 295.475C163.338 295.553 163.588 295.68 163.807 295.855C164.025 296.027 164.211 296.258 164.363 296.547C164.52 296.832 164.639 297.182 164.721 297.596C164.803 298.01 164.844 298.496 164.844 299.055ZM163.754 300.531V298.873C163.754 298.49 163.73 298.154 163.684 297.865C163.641 297.572 163.576 297.322 163.49 297.115C163.404 296.908 163.295 296.74 163.162 296.611C163.033 296.482 162.883 296.389 162.711 296.33C162.543 296.268 162.354 296.236 162.143 296.236C161.885 296.236 161.656 296.285 161.457 296.383C161.258 296.477 161.09 296.627 160.953 296.834C160.82 297.041 160.719 297.312 160.648 297.648C160.578 297.984 160.543 298.393 160.543 298.873V300.531C160.543 300.914 160.564 301.252 160.607 301.545C160.654 301.838 160.723 302.092 160.812 302.307C160.902 302.518 161.012 302.691 161.141 302.828C161.27 302.965 161.418 303.066 161.586 303.133C161.758 303.195 161.947 303.227 162.154 303.227C162.42 303.227 162.652 303.176 162.852 303.074C163.051 302.973 163.217 302.814 163.35 302.6C163.486 302.381 163.588 302.102 163.654 301.762C163.721 301.418 163.754 301.008 163.754 300.531ZM174.113 297.66V304H173.029V297.66H174.113ZM173.744 300.572V301.463C173.525 301.545 173.303 301.619 173.076 301.686C172.854 301.748 172.617 301.799 172.367 301.838C172.121 301.873 171.854 301.891 171.564 301.891C171.064 301.891 170.631 301.805 170.264 301.633C169.896 301.457 169.613 301.193 169.414 300.842C169.215 300.486 169.115 300.039 169.115 299.5V297.648H170.199V299.5C170.199 299.852 170.252 300.137 170.357 300.355C170.463 300.574 170.617 300.736 170.82 300.842C171.023 300.943 171.271 300.994 171.564 300.994C171.846 300.994 172.109 300.977 172.355 300.941C172.605 300.902 172.844 300.852 173.07 300.789C173.301 300.727 173.525 300.654 173.744 300.572Z" fill="#94A3B8"/>
<path d="M219.027 16V284" stroke="#E2E8F0" stroke-dasharray="2 2"/>
<path d="M211.796 295.422V304H210.712V296.775L208.527 297.572V296.594L211.626 295.422H211.796ZM216.355 299.939L215.488 299.717L215.916 295.469H220.292V296.471H216.835L216.578 298.791C216.734 298.701 216.931 298.617 217.169 298.539C217.412 298.461 217.689 298.422 218.001 298.422C218.396 298.422 218.75 298.49 219.062 298.627C219.375 298.76 219.64 298.951 219.859 299.201C220.082 299.451 220.251 299.752 220.369 300.104C220.486 300.455 220.544 300.848 220.544 301.281C220.544 301.691 220.488 302.068 220.375 302.412C220.265 302.756 220.099 303.057 219.876 303.314C219.654 303.568 219.373 303.766 219.033 303.906C218.697 304.047 218.3 304.117 217.843 304.117C217.5 304.117 217.173 304.07 216.865 303.977C216.56 303.879 216.287 303.732 216.044 303.537C215.806 303.338 215.611 303.092 215.458 302.799C215.31 302.502 215.216 302.154 215.177 301.756H216.208C216.255 302.076 216.349 302.346 216.49 302.564C216.63 302.783 216.814 302.949 217.041 303.062C217.271 303.172 217.539 303.227 217.843 303.227C218.101 303.227 218.33 303.182 218.529 303.092C218.728 303.002 218.896 302.873 219.033 302.705C219.169 302.537 219.273 302.334 219.343 302.096C219.417 301.857 219.455 301.59 219.455 301.293C219.455 301.023 219.417 300.773 219.343 300.543C219.269 300.312 219.158 300.111 219.009 299.939C218.865 299.768 218.687 299.635 218.476 299.541C218.265 299.443 218.023 299.395 217.75 299.395C217.386 299.395 217.111 299.443 216.923 299.541C216.74 299.639 216.55 299.771 216.355 299.939ZM229.609 297.66V304H228.525V297.66H229.609ZM229.24 300.572V301.463C229.021 301.545 228.798 301.619 228.572 301.686C228.349 301.748 228.113 301.799 227.863 301.838C227.617 301.873 227.349 301.891 227.06 301.891C226.56 301.891 226.126 301.805 225.759 301.633C225.392 301.457 225.109 301.193 224.91 300.842C224.71 300.486 224.611 300.039 224.611 299.5V297.648H225.695V299.5C225.695 299.852 225.748 300.137 225.853 300.355C225.958 300.574 226.113 300.736 226.316 300.842C226.519 300.943 226.767 300.994 227.06 300.994C227.341 300.994 227.605 300.977 227.851 300.941C228.101 300.902 228.339 300.852 228.566 300.789C228.796 300.727 229.021 300.654 229.24 300.572Z" fill="#94A3B8"/>
<path d="M274.522 16V284" stroke="#E2E8F0" stroke-dasharray="2 2"/>
<path d="M269.319 303.109V304H263.735V303.221L266.53 300.109C266.874 299.727 267.14 299.402 267.327 299.137C267.519 298.867 267.651 298.627 267.726 298.416C267.804 298.201 267.843 297.982 267.843 297.76C267.843 297.479 267.784 297.225 267.667 296.998C267.554 296.768 267.386 296.584 267.163 296.447C266.94 296.311 266.671 296.242 266.354 296.242C265.976 296.242 265.659 296.316 265.405 296.465C265.155 296.609 264.968 296.812 264.843 297.074C264.718 297.336 264.655 297.637 264.655 297.977H263.571C263.571 297.496 263.677 297.057 263.888 296.658C264.099 296.26 264.411 295.943 264.825 295.709C265.239 295.471 265.749 295.352 266.354 295.352C266.894 295.352 267.354 295.447 267.737 295.639C268.12 295.826 268.413 296.092 268.616 296.436C268.823 296.775 268.927 297.174 268.927 297.631C268.927 297.881 268.884 298.135 268.798 298.393C268.716 298.646 268.601 298.9 268.452 299.154C268.308 299.408 268.138 299.658 267.942 299.904C267.751 300.15 267.546 300.393 267.327 300.631L265.042 303.109H269.319ZM275.835 299.055V300.355C275.835 301.055 275.772 301.645 275.647 302.125C275.522 302.605 275.343 302.992 275.108 303.285C274.874 303.578 274.591 303.791 274.259 303.924C273.931 304.053 273.56 304.117 273.146 304.117C272.817 304.117 272.515 304.076 272.237 303.994C271.96 303.912 271.71 303.781 271.487 303.602C271.269 303.418 271.081 303.18 270.925 302.887C270.769 302.594 270.649 302.238 270.567 301.82C270.485 301.402 270.444 300.914 270.444 300.355V299.055C270.444 298.355 270.507 297.77 270.632 297.297C270.761 296.824 270.942 296.445 271.177 296.16C271.411 295.871 271.692 295.664 272.021 295.539C272.353 295.414 272.724 295.352 273.134 295.352C273.466 295.352 273.771 295.393 274.048 295.475C274.329 295.553 274.579 295.68 274.798 295.855C275.017 296.027 275.202 296.258 275.354 296.547C275.511 296.832 275.63 297.182 275.712 297.596C275.794 298.01 275.835 298.496 275.835 299.055ZM274.745 300.531V298.873C274.745 298.49 274.722 298.154 274.675 297.865C274.632 297.572 274.567 297.322 274.481 297.115C274.396 296.908 274.286 296.74 274.153 296.611C274.024 296.482 273.874 296.389 273.702 296.33C273.534 296.268 273.345 296.236 273.134 296.236C272.876 296.236 272.647 296.285 272.448 296.383C272.249 296.477 272.081 296.627 271.944 296.834C271.812 297.041 271.71 297.312 271.64 297.648C271.569 297.984 271.534 298.393 271.534 298.873V300.531C271.534 300.914 271.556 301.252 271.599 301.545C271.646 301.838 271.714 302.092 271.804 302.307C271.894 302.518 272.003 302.691 272.132 302.828C272.261 302.965 272.409 303.066 272.577 303.133C272.749 303.195 272.938 303.227 273.146 303.227C273.411 303.227 273.644 303.176 273.843 303.074C274.042 302.973 274.208 302.814 274.341 302.6C274.478 302.381 274.579 302.102 274.646 301.762C274.712 301.418 274.745 301.008 274.745 300.531ZM285.104 297.66V304H284.021V297.66H285.104ZM284.735 300.572V301.463C284.517 301.545 284.294 301.619 284.067 301.686C283.845 301.748 283.608 301.799 283.358 301.838C283.112 301.873 282.845 301.891 282.556 301.891C282.056 301.891 281.622 301.805 281.255 301.633C280.888 301.457 280.604 301.193 280.405 300.842C280.206 300.486 280.106 300.039 280.106 299.5V297.648H281.19V299.5C281.19 299.852 281.243 300.137 281.349 300.355C281.454 300.574 281.608 300.736 281.812 300.842C282.015 300.943 282.263 300.994 282.556 300.994C282.837 300.994 283.101 300.977 283.347 300.941C283.597 300.902 283.835 300.852 284.062 300.789C284.292 300.727 284.517 300.654 284.735 300.572Z" fill="#94A3B8"/>
<path d="M330.018 16V284" stroke="#E2E8F0" stroke-dasharray="2 2"/>
<path d="M324.815 303.109V304H319.231V303.221L322.026 300.109C322.37 299.727 322.635 299.402 322.823 299.137C323.014 298.867 323.147 298.627 323.221 298.416C323.299 298.201 323.338 297.982 323.338 297.76C323.338 297.479 323.28 297.225 323.163 296.998C323.049 296.768 322.881 296.584 322.659 296.447C322.436 296.311 322.167 296.242 321.85 296.242C321.471 296.242 321.155 296.316 320.901 296.465C320.651 296.609 320.463 296.812 320.338 297.074C320.213 297.336 320.151 297.637 320.151 297.977H319.067C319.067 297.496 319.172 297.057 319.383 296.658C319.594 296.26 319.907 295.943 320.321 295.709C320.735 295.471 321.245 295.352 321.85 295.352C322.389 295.352 322.85 295.447 323.233 295.639C323.616 295.826 323.909 296.092 324.112 296.436C324.319 296.775 324.422 297.174 324.422 297.631C324.422 297.881 324.379 298.135 324.293 298.393C324.211 298.646 324.096 298.9 323.948 299.154C323.803 299.408 323.633 299.658 323.438 299.904C323.247 300.15 323.042 300.393 322.823 300.631L320.538 303.109H324.815ZM327.346 299.939L326.479 299.717L326.907 295.469H331.284V296.471H327.827L327.569 298.791C327.725 298.701 327.922 298.617 328.161 298.539C328.403 298.461 328.68 298.422 328.993 298.422C329.387 298.422 329.741 298.49 330.053 298.627C330.366 298.76 330.631 298.951 330.85 299.201C331.073 299.451 331.243 299.752 331.36 300.104C331.477 300.455 331.536 300.848 331.536 301.281C331.536 301.691 331.479 302.068 331.366 302.412C331.256 302.756 331.09 303.057 330.868 303.314C330.645 303.568 330.364 303.766 330.024 303.906C329.688 304.047 329.292 304.117 328.834 304.117C328.491 304.117 328.165 304.07 327.856 303.977C327.551 303.879 327.278 303.732 327.036 303.537C326.797 303.338 326.602 303.092 326.45 302.799C326.301 302.502 326.208 302.154 326.168 301.756H327.2C327.247 302.076 327.34 302.346 327.481 302.564C327.622 302.783 327.805 302.949 328.032 303.062C328.262 303.172 328.53 303.227 328.834 303.227C329.092 303.227 329.321 303.182 329.52 303.092C329.719 303.002 329.887 302.873 330.024 302.705C330.161 302.537 330.264 302.334 330.334 302.096C330.409 301.857 330.446 301.59 330.446 301.293C330.446 301.023 330.409 300.773 330.334 300.543C330.26 300.312 330.149 300.111 330 299.939C329.856 299.768 329.678 299.635 329.467 299.541C329.256 299.443 329.014 299.395 328.741 299.395C328.377 299.395 328.102 299.443 327.915 299.541C327.731 299.639 327.542 299.771 327.346 299.939ZM340.6 297.66V304H339.516V297.66H340.6ZM340.231 300.572V301.463C340.012 301.545 339.79 301.619 339.563 301.686C339.34 301.748 339.104 301.799 338.854 301.838C338.608 301.873 338.34 301.891 338.051 301.891C337.551 301.891 337.118 301.805 336.75 301.633C336.383 301.457 336.1 301.193 335.901 300.842C335.702 300.486 335.602 300.039 335.602 299.5V297.648H336.686V299.5C336.686 299.852 336.739 300.137 336.844 300.355C336.95 300.574 337.104 300.736 337.307 300.842C337.51 300.943 337.758 300.994 338.051 300.994C338.333 300.994 338.596 300.977 338.842 300.941C339.092 300.902 339.331 300.852 339.557 300.789C339.788 300.727 340.012 300.654 340.231 300.572Z" fill="#94A3B8"/>
<path d="M385.514 16V284" stroke="#E2E8F0" stroke-dasharray="2 2"/>
<path d="M376.303 299.201H377.076C377.455 299.201 377.768 299.139 378.014 299.014C378.264 298.885 378.449 298.711 378.57 298.492C378.695 298.27 378.758 298.02 378.758 297.742C378.758 297.414 378.703 297.139 378.594 296.916C378.484 296.693 378.32 296.525 378.102 296.412C377.883 296.299 377.605 296.242 377.27 296.242C376.965 296.242 376.695 296.303 376.461 296.424C376.23 296.541 376.049 296.709 375.916 296.928C375.787 297.146 375.723 297.404 375.723 297.701H374.639C374.639 297.268 374.748 296.873 374.967 296.518C375.186 296.162 375.492 295.879 375.887 295.668C376.285 295.457 376.746 295.352 377.27 295.352C377.785 295.352 378.236 295.443 378.623 295.627C379.01 295.807 379.311 296.076 379.525 296.436C379.74 296.791 379.848 297.234 379.848 297.766C379.848 297.98 379.797 298.211 379.695 298.457C379.598 298.699 379.443 298.926 379.232 299.137C379.025 299.348 378.756 299.521 378.424 299.658C378.092 299.791 377.693 299.857 377.229 299.857H376.303V299.201ZM376.303 300.092V299.441H377.229C377.771 299.441 378.221 299.506 378.576 299.635C378.932 299.764 379.211 299.936 379.414 300.15C379.621 300.365 379.766 300.602 379.848 300.859C379.934 301.113 379.977 301.367 379.977 301.621C379.977 302.02 379.908 302.373 379.771 302.682C379.639 302.99 379.449 303.252 379.203 303.467C378.961 303.682 378.676 303.844 378.348 303.953C378.02 304.062 377.662 304.117 377.275 304.117C376.904 304.117 376.555 304.064 376.227 303.959C375.902 303.854 375.615 303.701 375.365 303.502C375.115 303.299 374.92 303.051 374.779 302.758C374.639 302.461 374.568 302.123 374.568 301.744H375.652C375.652 302.041 375.717 302.301 375.846 302.523C375.979 302.746 376.166 302.92 376.408 303.045C376.654 303.166 376.943 303.227 377.275 303.227C377.607 303.227 377.893 303.17 378.131 303.057C378.373 302.939 378.559 302.764 378.688 302.529C378.82 302.295 378.887 302 378.887 301.645C378.887 301.289 378.812 300.998 378.664 300.771C378.516 300.541 378.305 300.371 378.031 300.262C377.762 300.148 377.443 300.092 377.076 300.092H376.303ZM386.826 299.055V300.355C386.826 301.055 386.764 301.645 386.639 302.125C386.514 302.605 386.334 302.992 386.1 303.285C385.865 303.578 385.582 303.791 385.25 303.924C384.922 304.053 384.551 304.117 384.137 304.117C383.809 304.117 383.506 304.076 383.229 303.994C382.951 303.912 382.701 303.781 382.479 303.602C382.26 303.418 382.072 303.18 381.916 302.887C381.76 302.594 381.641 302.238 381.559 301.82C381.477 301.402 381.436 300.914 381.436 300.355V299.055C381.436 298.355 381.498 297.77 381.623 297.297C381.752 296.824 381.934 296.445 382.168 296.16C382.402 295.871 382.684 295.664 383.012 295.539C383.344 295.414 383.715 295.352 384.125 295.352C384.457 295.352 384.762 295.393 385.039 295.475C385.32 295.553 385.57 295.68 385.789 295.855C386.008 296.027 386.193 296.258 386.346 296.547C386.502 296.832 386.621 297.182 386.703 297.596C386.785 298.01 386.826 298.496 386.826 299.055ZM385.736 300.531V298.873C385.736 298.49 385.713 298.154 385.666 297.865C385.623 297.572 385.559 297.322 385.473 297.115C385.387 296.908 385.277 296.74 385.145 296.611C385.016 296.482 384.865 296.389 384.693 296.33C384.525 296.268 384.336 296.236 384.125 296.236C383.867 296.236 383.639 296.285 383.439 296.383C383.24 296.477 383.072 296.627 382.936 296.834C382.803 297.041 382.701 297.312 382.631 297.648C382.561 297.984 382.525 298.393 382.525 298.873V300.531C382.525 300.914 382.547 301.252 382.59 301.545C382.637 301.838 382.705 302.092 382.795 302.307C382.885 302.518 382.994 302.691 383.123 302.828C383.252 302.965 383.4 303.066 383.568 303.133C383.74 303.195 383.93 303.227 384.137 303.227C384.402 303.227 384.635 303.176 384.834 303.074C385.033 302.973 385.199 302.814 385.332 302.6C385.469 302.381 385.57 302.102 385.637 301.762C385.703 301.418 385.736 301.008 385.736 300.531ZM396.096 297.66V304H395.012V297.66H396.096ZM395.727 300.572V301.463C395.508 301.545 395.285 301.619 395.059 301.686C394.836 301.748 394.6 301.799 394.35 301.838C394.104 301.873 393.836 301.891 393.547 301.891C393.047 301.891 392.613 301.805 392.246 301.633C391.879 301.457 391.596 301.193 391.396 300.842C391.197 300.486 391.098 300.039 391.098 299.5V297.648H392.182V299.5C392.182 299.852 392.234 300.137 392.34 300.355C392.445 300.574 392.6 300.736 392.803 300.842C393.006 300.943 393.254 300.994 393.547 300.994C393.828 300.994 394.092 300.977 394.338 300.941C394.588 300.902 394.826 300.852 395.053 300.789C395.283 300.727 395.508 300.654 395.727 300.572Z" fill="#94A3B8"/>
<path d="M441.009 16V284" stroke="#E2E8F0" stroke-dasharray="2 2"/>
<path d="M431.798 299.201H432.571C432.95 299.201 433.263 299.139 433.509 299.014C433.759 298.885 433.944 298.711 434.065 298.492C434.19 298.27 434.253 298.02 434.253 297.742C434.253 297.414 434.198 297.139 434.089 296.916C433.979 296.693 433.815 296.525 433.597 296.412C433.378 296.299 433.101 296.242 432.765 296.242C432.46 296.242 432.19 296.303 431.956 296.424C431.726 296.541 431.544 296.709 431.411 296.928C431.282 297.146 431.218 297.404 431.218 297.701H430.134C430.134 297.268 430.243 296.873 430.462 296.518C430.681 296.162 430.987 295.879 431.382 295.668C431.78 295.457 432.241 295.352 432.765 295.352C433.28 295.352 433.731 295.443 434.118 295.627C434.505 295.807 434.806 296.076 435.021 296.436C435.235 296.791 435.343 297.234 435.343 297.766C435.343 297.98 435.292 298.211 435.19 298.457C435.093 298.699 434.938 298.926 434.728 299.137C434.521 299.348 434.251 299.521 433.919 299.658C433.587 299.791 433.188 299.857 432.724 299.857H431.798V299.201ZM431.798 300.092V299.441H432.724C433.267 299.441 433.716 299.506 434.071 299.635C434.427 299.764 434.706 299.936 434.909 300.15C435.116 300.365 435.261 300.602 435.343 300.859C435.429 301.113 435.472 301.367 435.472 301.621C435.472 302.02 435.403 302.373 435.267 302.682C435.134 302.99 434.944 303.252 434.698 303.467C434.456 303.682 434.171 303.844 433.843 303.953C433.515 304.062 433.157 304.117 432.771 304.117C432.399 304.117 432.05 304.064 431.722 303.959C431.397 303.854 431.11 303.701 430.86 303.502C430.61 303.299 430.415 303.051 430.274 302.758C430.134 302.461 430.063 302.123 430.063 301.744H431.147C431.147 302.041 431.212 302.301 431.341 302.523C431.474 302.746 431.661 302.92 431.903 303.045C432.149 303.166 432.438 303.227 432.771 303.227C433.103 303.227 433.388 303.17 433.626 303.057C433.868 302.939 434.054 302.764 434.183 302.529C434.315 302.295 434.382 302 434.382 301.645C434.382 301.289 434.308 300.998 434.159 300.771C434.011 300.541 433.8 300.371 433.526 300.262C433.257 300.148 432.938 300.092 432.571 300.092H431.798ZM438.337 299.939L437.47 299.717L437.897 295.469H442.274V296.471H438.817L438.56 298.791C438.716 298.701 438.913 298.617 439.151 298.539C439.394 298.461 439.671 298.422 439.983 298.422C440.378 298.422 440.731 298.49 441.044 298.627C441.356 298.76 441.622 298.951 441.841 299.201C442.063 299.451 442.233 299.752 442.351 300.104C442.468 300.455 442.526 300.848 442.526 301.281C442.526 301.691 442.47 302.068 442.356 302.412C442.247 302.756 442.081 303.057 441.858 303.314C441.636 303.568 441.354 303.766 441.015 303.906C440.679 304.047 440.282 304.117 439.825 304.117C439.481 304.117 439.155 304.07 438.847 303.977C438.542 303.879 438.269 303.732 438.026 303.537C437.788 303.338 437.593 303.092 437.44 302.799C437.292 302.502 437.198 302.154 437.159 301.756H438.19C438.237 302.076 438.331 302.346 438.472 302.564C438.612 302.783 438.796 302.949 439.022 303.062C439.253 303.172 439.521 303.227 439.825 303.227C440.083 303.227 440.312 303.182 440.511 303.092C440.71 303.002 440.878 302.873 441.015 302.705C441.151 302.537 441.255 302.334 441.325 302.096C441.399 301.857 441.437 301.59 441.437 301.293C441.437 301.023 441.399 300.773 441.325 300.543C441.251 300.312 441.14 300.111 440.991 299.939C440.847 299.768 440.669 299.635 440.458 299.541C440.247 299.443 440.005 299.395 439.731 299.395C439.368 299.395 439.093 299.443 438.905 299.541C438.722 299.639 438.532 299.771 438.337 299.939ZM451.591 297.66V304H450.507V297.66H451.591ZM451.222 300.572V301.463C451.003 301.545 450.78 301.619 450.554 301.686C450.331 301.748 450.095 301.799 449.845 301.838C449.599 301.873 449.331 301.891 449.042 301.891C448.542 301.891 448.108 301.805 447.741 301.633C447.374 301.457 447.091 301.193 446.892 300.842C446.692 300.486 446.593 300.039 446.593 299.5V297.648H447.677V299.5C447.677 299.852 447.729 300.137 447.835 300.355C447.94 300.574 448.095 300.736 448.298 300.842C448.501 300.943 448.749 300.994 449.042 300.994C449.323 300.994 449.587 300.977 449.833 300.941C450.083 300.902 450.321 300.852 450.548 300.789C450.778 300.727 451.003 300.654 451.222 300.572Z" fill="#94A3B8"/>
<path d="M496.504 16V284" stroke="#E2E8F0" stroke-dasharray="2 2"/>
<path d="M491.477 301.129V302.02H485.313V301.381L489.133 295.469H490.018L489.069 297.18L486.543 301.129H491.477ZM490.288 295.469V304H489.204V295.469H490.288ZM497.817 299.055V300.355C497.817 301.055 497.754 301.645 497.629 302.125C497.504 302.605 497.325 302.992 497.09 303.285C496.856 303.578 496.573 303.791 496.241 303.924C495.913 304.053 495.542 304.117 495.127 304.117C494.799 304.117 494.497 304.076 494.219 303.994C493.942 303.912 493.692 303.781 493.469 303.602C493.25 303.418 493.063 303.18 492.907 302.887C492.75 302.594 492.631 302.238 492.549 301.82C492.467 301.402 492.426 300.914 492.426 300.355V299.055C492.426 298.355 492.489 297.77 492.614 297.297C492.743 296.824 492.924 296.445 493.159 296.16C493.393 295.871 493.674 295.664 494.002 295.539C494.334 295.414 494.706 295.352 495.116 295.352C495.448 295.352 495.752 295.393 496.03 295.475C496.311 295.553 496.561 295.68 496.78 295.855C496.999 296.027 497.184 296.258 497.336 296.547C497.493 296.832 497.612 297.182 497.694 297.596C497.776 298.01 497.817 298.496 497.817 299.055ZM496.727 300.531V298.873C496.727 298.49 496.704 298.154 496.657 297.865C496.614 297.572 496.549 297.322 496.463 297.115C496.377 296.908 496.268 296.74 496.135 296.611C496.006 296.482 495.856 296.389 495.684 296.33C495.516 296.268 495.327 296.236 495.116 296.236C494.858 296.236 494.629 296.285 494.43 296.383C494.231 296.477 494.063 296.627 493.926 296.834C493.793 297.041 493.692 297.312 493.622 297.648C493.551 297.984 493.516 298.393 493.516 298.873V300.531C493.516 300.914 493.538 301.252 493.581 301.545C493.627 301.838 493.696 302.092 493.786 302.307C493.875 302.518 493.985 302.691 494.114 302.828C494.243 302.965 494.391 303.066 494.559 303.133C494.731 303.195 494.92 303.227 495.127 303.227C495.393 303.227 495.625 303.176 495.825 303.074C496.024 302.973 496.19 302.814 496.323 302.6C496.459 302.381 496.561 302.102 496.627 301.762C496.694 301.418 496.727 301.008 496.727 300.531ZM507.086 297.66V304H506.002V297.66H507.086ZM506.717 300.572V301.463C506.499 301.545 506.276 301.619 506.049 301.686C505.827 301.748 505.59 301.799 505.34 301.838C505.094 301.873 504.827 301.891 504.538 301.891C504.038 301.891 503.604 301.805 503.237 301.633C502.87 301.457 502.586 301.193 502.387 300.842C502.188 300.486 502.088 300.039 502.088 299.5V297.648H503.172V299.5C503.172 299.852 503.225 300.137 503.331 300.355C503.436 300.574 503.59 300.736 503.793 300.842C503.997 300.943 504.245 300.994 504.538 300.994C504.819 300.994 505.083 300.977 505.329 300.941C505.579 300.902 505.817 300.852 506.043 300.789C506.274 300.727 506.499 300.654 506.717 300.572Z" fill="#94A3B8"/>
<path d="M552 16V284" stroke="#E2E8F0" stroke-dasharray="2 2"/>
<path d="M535.473 301.129V302.02H529.309V301.381L533.129 295.469H534.014L533.064 297.18L530.539 301.129H535.473ZM534.283 295.469V304H533.199V295.469H534.283ZM537.828 299.939L536.961 299.717L537.389 295.469H541.766V296.471H538.309L538.051 298.791C538.207 298.701 538.404 298.617 538.643 298.539C538.885 298.461 539.162 298.422 539.475 298.422C539.869 298.422 540.223 298.49 540.535 298.627C540.848 298.76 541.113 298.951 541.332 299.201C541.555 299.451 541.725 299.752 541.842 300.104C541.959 300.455 542.018 300.848 542.018 301.281C542.018 301.691 541.961 302.068 541.848 302.412C541.738 302.756 541.572 303.057 541.35 303.314C541.127 303.568 540.846 303.766 540.506 303.906C540.17 304.047 539.773 304.117 539.316 304.117C538.973 304.117 538.646 304.07 538.338 303.977C538.033 303.879 537.76 303.732 537.518 303.537C537.279 303.338 537.084 303.092 536.932 302.799C536.783 302.502 536.689 302.154 536.65 301.756H537.682C537.729 302.076 537.822 302.346 537.963 302.564C538.104 302.783 538.287 302.949 538.514 303.062C538.744 303.172 539.012 303.227 539.316 303.227C539.574 303.227 539.803 303.182 540.002 303.092C540.201 303.002 540.369 302.873 540.506 302.705C540.643 302.537 540.746 302.334 540.816 302.096C540.891 301.857 540.928 301.59 540.928 301.293C540.928 301.023 540.891 300.773 540.816 300.543C540.742 300.312 540.631 300.111 540.482 299.939C540.338 299.768 540.16 299.635 539.949 299.541C539.738 299.443 539.496 299.395 539.223 299.395C538.859 299.395 538.584 299.443 538.396 299.541C538.213 299.639 538.023 299.771 537.828 299.939ZM551.082 297.66V304H549.998V297.66H551.082ZM550.713 300.572V301.463C550.494 301.545 550.271 301.619 550.045 301.686C549.822 301.748 549.586 301.799 549.336 301.838C549.09 301.873 548.822 301.891 548.533 301.891C548.033 301.891 547.6 301.805 547.232 301.633C546.865 301.457 546.582 301.193 546.383 300.842C546.184 300.486 546.084 300.039 546.084 299.5V297.648H547.168V299.5C547.168 299.852 547.221 300.137 547.326 300.355C547.432 300.574 547.586 300.736 547.789 300.842C547.992 300.943 548.24 300.994 548.533 300.994C548.814 300.994 549.078 300.977 549.324 300.941C549.574 300.902 549.812 300.852 550.039 300.789C550.27 300.727 550.494 300.654 550.713 300.572Z" fill="#94A3B8"/>
<path d="M56.375 16H542" stroke="#E2E8F0" stroke-dasharray="2 2"/>
<path d="M24.8613 15.2012H25.6348C26.0137 15.2012 26.3262 15.1387 26.5723 15.0137C26.8223 14.8848 27.0078 14.7109 27.1289 14.4922C27.2539 14.2695 27.3164 14.0195 27.3164 13.7422C27.3164 13.4141 27.2617 13.1387 27.1523 12.916C27.043 12.6934 26.8789 12.5254 26.6602 12.4121C26.4414 12.2988 26.1641 12.2422 25.8281 12.2422C25.5234 12.2422 25.2539 12.3027 25.0195 12.4238C24.7891 12.541 24.6074 12.709 24.4746 12.9277C24.3457 13.1465 24.2812 13.4043 24.2812 13.7012H23.1973C23.1973 13.2676 23.3066 12.873 23.5254 12.5176C23.7441 12.1621 24.0508 11.8789 24.4453 11.668C24.8438 11.457 25.3047 11.3516 25.8281 11.3516C26.3438 11.3516 26.7949 11.4434 27.1816 11.627C27.5684 11.8066 27.8691 12.0762 28.084 12.4355C28.2988 12.791 28.4062 13.2344 28.4062 13.7656C28.4062 13.9805 28.3555 14.2109 28.2539 14.457C28.1562 14.6992 28.002 14.9258 27.791 15.1367C27.584 15.3477 27.3145 15.5215 26.9824 15.6582C26.6504 15.791 26.252 15.8574 25.7871 15.8574H24.8613V15.2012ZM24.8613 16.0918V15.4414H25.7871C26.3301 15.4414 26.7793 15.5059 27.1348 15.6348C27.4902 15.7637 27.7695 15.9355 27.9727 16.1504C28.1797 16.3652 28.3242 16.6016 28.4062 16.8594C28.4922 17.1133 28.5352 17.3672 28.5352 17.6211C28.5352 18.0195 28.4668 18.373 28.3301 18.6816C28.1973 18.9902 28.0078 19.252 27.7617 19.4668C27.5195 19.6816 27.2344 19.8438 26.9062 19.9531C26.5781 20.0625 26.2207 20.1172 25.834 20.1172C25.4629 20.1172 25.1133 20.0645 24.7852 19.959C24.4609 19.8535 24.1738 19.7012 23.9238 19.502C23.6738 19.2988 23.4785 19.0508 23.3379 18.7578C23.1973 18.4609 23.127 18.123 23.127 17.7441H24.2109C24.2109 18.041 24.2754 18.3008 24.4043 18.5234C24.5371 18.7461 24.7246 18.9199 24.9668 19.0449C25.2129 19.166 25.502 19.2266 25.834 19.2266C26.166 19.2266 26.4512 19.1699 26.6895 19.0566C26.9316 18.9395 27.1172 18.7637 27.2461 18.5293C27.3789 18.2949 27.4453 18 27.4453 17.6445C27.4453 17.2891 27.3711 16.998 27.2227 16.7715C27.0742 16.541 26.8633 16.3711 26.5898 16.2617C26.3203 16.1484 26.002 16.0918 25.6348 16.0918H24.8613ZM35.3848 15.0547V16.3555C35.3848 17.0547 35.3223 17.6445 35.1973 18.125C35.0723 18.6055 34.8926 18.9922 34.6582 19.2852C34.4238 19.5781 34.1406 19.791 33.8086 19.9238C33.4805 20.0527 33.1094 20.1172 32.6953 20.1172C32.3672 20.1172 32.0645 20.0762 31.7871 19.9941C31.5098 19.9121 31.2598 19.7812 31.0371 19.6016C30.8184 19.418 30.6309 19.1797 30.4746 18.8867C30.3184 18.5938 30.1992 18.2383 30.1172 17.8203C30.0352 17.4023 29.9941 16.9141 29.9941 16.3555V15.0547C29.9941 14.3555 30.0566 13.7695 30.1816 13.2969C30.3105 12.8242 30.4922 12.4453 30.7266 12.1602C30.9609 11.8711 31.2422 11.6641 31.5703 11.5391C31.9023 11.4141 32.2734 11.3516 32.6836 11.3516C33.0156 11.3516 33.3203 11.3926 33.5977 11.4746C33.8789 11.5527 34.1289 11.6797 34.3477 11.8555C34.5664 12.0273 34.752 12.2578 34.9043 12.5469C35.0605 12.832 35.1797 13.1816 35.2617 13.5957C35.3438 14.0098 35.3848 14.4961 35.3848 15.0547ZM34.2949 16.5312V14.873C34.2949 14.4902 34.2715 14.1543 34.2246 13.8652C34.1816 13.5723 34.1172 13.3223 34.0312 13.1152C33.9453 12.9082 33.8359 12.7402 33.7031 12.6113C33.5742 12.4824 33.4238 12.3887 33.252 12.3301C33.084 12.2676 32.8945 12.2363 32.6836 12.2363C32.4258 12.2363 32.1973 12.2852 31.998 12.3828C31.7988 12.4766 31.6309 12.627 31.4941 12.834C31.3613 13.041 31.2598 13.3125 31.1895 13.6484C31.1191 13.9844 31.084 14.3926 31.084 14.873V16.5312C31.084 16.9141 31.1055 17.252 31.1484 17.5449C31.1953 17.8379 31.2637 18.0918 31.3535 18.3066C31.4434 18.5176 31.5527 18.6914 31.6816 18.8281C31.8105 18.9648 31.959 19.0664 32.127 19.1328C32.2988 19.1953 32.4883 19.2266 32.6953 19.2266C32.9609 19.2266 33.1934 19.1758 33.3926 19.0742C33.5918 18.9727 33.7578 18.8145 33.8906 18.5996C34.0273 18.3809 34.1289 18.1016 34.1953 17.7617C34.2617 17.418 34.2949 17.0078 34.2949 16.5312ZM36.8379 12.8691C36.8379 12.5918 36.9062 12.3379 37.043 12.1074C37.1797 11.877 37.3613 11.6934 37.5879 11.5566C37.8145 11.416 38.0625 11.3457 38.332 11.3457C38.6016 11.3457 38.8477 11.416 39.0703 11.5566C39.293 11.6934 39.4707 11.877 39.6035 12.1074C39.7363 12.3379 39.8027 12.5918 39.8027 12.8691C39.8027 13.1465 39.7363 13.4004 39.6035 13.6309C39.4707 13.8574 39.293 14.0391 39.0703 14.1758C38.8477 14.3086 38.6016 14.375 38.332 14.375C38.0625 14.375 37.8145 14.3086 37.5879 14.1758C37.3613 14.0391 37.1797 13.8574 37.043 13.6309C36.9062 13.4004 36.8379 13.1465 36.8379 12.8691ZM37.5645 12.8691C37.5645 13.084 37.6387 13.2637 37.7871 13.4082C37.9395 13.5527 38.1211 13.625 38.332 13.625C38.543 13.625 38.7188 13.5527 38.8594 13.4082C39.0039 13.2637 39.0762 13.084 39.0762 12.8691C39.0762 12.6504 39.0039 12.4668 38.8594 12.3184C38.7188 12.1699 38.543 12.0957 38.332 12.0957C38.1211 12.0957 37.9395 12.1699 37.7871 12.3184C37.6387 12.4668 37.5645 12.6504 37.5645 12.8691ZM46.6992 17.2871H47.8242C47.7656 17.8262 47.6113 18.3086 47.3613 18.7344C47.1113 19.1602 46.7578 19.498 46.3008 19.748C45.8438 19.9941 45.2734 20.1172 44.5898 20.1172C44.0898 20.1172 43.6348 20.0234 43.2246 19.8359C42.8184 19.6484 42.4688 19.3828 42.1758 19.0391C41.8828 18.6914 41.6562 18.2754 41.4961 17.791C41.3398 17.3027 41.2617 16.7598 41.2617 16.1621V15.3125C41.2617 14.7148 41.3398 14.1738 41.4961 13.6895C41.6562 13.2012 41.8848 12.7832 42.1816 12.4355C42.4824 12.0879 42.8438 11.8203 43.2656 11.6328C43.6875 11.4453 44.1621 11.3516 44.6895 11.3516C45.334 11.3516 45.8789 11.4727 46.3242 11.7148C46.7695 11.957 47.1152 12.293 47.3613 12.7227C47.6113 13.1484 47.7656 13.6426 47.8242 14.2051H46.6992C46.6445 13.8066 46.543 13.4648 46.3945 13.1797C46.2461 12.8906 46.0352 12.668 45.7617 12.5117C45.4883 12.3555 45.1309 12.2773 44.6895 12.2773C44.3105 12.2773 43.9766 12.3496 43.6875 12.4941C43.4023 12.6387 43.1621 12.8438 42.9668 13.1094C42.7754 13.375 42.6309 13.6934 42.5332 14.0645C42.4355 14.4355 42.3867 14.8477 42.3867 15.3008V16.1621C42.3867 16.5801 42.4297 16.9727 42.5156 17.3398C42.6055 17.707 42.7402 18.0293 42.9199 18.3066C43.0996 18.584 43.3281 18.8027 43.6055 18.9629C43.8828 19.1191 44.2109 19.1973 44.5898 19.1973C45.0703 19.1973 45.4531 19.1211 45.7383 18.9688C46.0234 18.8164 46.2383 18.5977 46.3828 18.3125C46.5312 18.0273 46.6367 17.6855 46.6992 17.2871Z" fill="#94A3B8"/>
<path d="M56.375 69H542" stroke="#E2E8F0" stroke-dasharray="2 2"/>
<path d="M28.8691 72.1094V73H23.2852V72.2207L26.0801 69.1094C26.4238 68.7266 26.6895 68.4023 26.877 68.1367C27.0684 67.8672 27.2012 67.627 27.2754 67.416C27.3535 67.2012 27.3926 66.9824 27.3926 66.7598C27.3926 66.4785 27.334 66.2246 27.2168 65.998C27.1035 65.7676 26.9355 65.584 26.7129 65.4473C26.4902 65.3105 26.2207 65.2422 25.9043 65.2422C25.5254 65.2422 25.209 65.3164 24.9551 65.4648C24.7051 65.6094 24.5176 65.8125 24.3926 66.0742C24.2676 66.3359 24.2051 66.6367 24.2051 66.9766H23.1211C23.1211 66.4961 23.2266 66.0566 23.4375 65.6582C23.6484 65.2598 23.9609 64.9434 24.375 64.709C24.7891 64.4707 25.2988 64.3516 25.9043 64.3516C26.4434 64.3516 26.9043 64.4473 27.2871 64.6387C27.6699 64.8262 27.9629 65.0918 28.166 65.4355C28.373 65.7754 28.4766 66.1738 28.4766 66.6309C28.4766 66.8809 28.4336 67.1348 28.3477 67.3926C28.2656 67.6465 28.1504 67.9004 28.002 68.1543C27.8574 68.4082 27.6875 68.6582 27.4922 68.9043C27.3008 69.1504 27.0957 69.3926 26.877 69.6309L24.5918 72.1094H28.8691ZM34.1895 64.457H34.2832V65.377H34.1895C33.6152 65.377 33.1348 65.4707 32.748 65.6582C32.3613 65.8418 32.0547 66.0898 31.8281 66.4023C31.6016 66.7109 31.4375 67.0586 31.3359 67.4453C31.2383 67.832 31.1895 68.2246 31.1895 68.623V69.877C31.1895 70.2559 31.2344 70.5918 31.3242 70.8848C31.4141 71.1738 31.5371 71.418 31.6934 71.6172C31.8496 71.8164 32.0254 71.9668 32.2207 72.0684C32.4199 72.1699 32.627 72.2207 32.8418 72.2207C33.0918 72.2207 33.3145 72.1738 33.5098 72.0801C33.7051 71.9824 33.8691 71.8477 34.002 71.6758C34.1387 71.5 34.2422 71.293 34.3125 71.0547C34.3828 70.8164 34.418 70.5547 34.418 70.2695C34.418 70.0156 34.3867 69.7715 34.3242 69.5371C34.2617 69.2988 34.166 69.0879 34.0371 68.9043C33.9082 68.7168 33.7461 68.5703 33.5508 68.4648C33.3594 68.3555 33.1309 68.3008 32.8652 68.3008C32.5645 68.3008 32.2832 68.375 32.0215 68.5234C31.7637 68.668 31.5508 68.8594 31.3828 69.0977C31.2188 69.332 31.125 69.5879 31.1016 69.8652L30.5273 69.8594C30.582 69.4219 30.6836 69.0488 30.832 68.7402C30.9844 68.4277 31.1719 68.1738 31.3945 67.9785C31.6211 67.7793 31.873 67.6348 32.1504 67.5449C32.4316 67.4512 32.7285 67.4043 33.041 67.4043C33.4668 67.4043 33.834 67.4844 34.1426 67.6445C34.4512 67.8047 34.7051 68.0195 34.9043 68.2891C35.1035 68.5547 35.25 68.8555 35.3438 69.1914C35.4414 69.5234 35.4902 69.8652 35.4902 70.2168C35.4902 70.6191 35.4336 70.9961 35.3203 71.3477C35.207 71.6992 35.0371 72.0078 34.8105 72.2734C34.5879 72.5391 34.3125 72.7461 33.9844 72.8945C33.6562 73.043 33.2754 73.1172 32.8418 73.1172C32.3809 73.1172 31.9785 73.0234 31.6348 72.8359C31.291 72.6445 31.0059 72.3906 30.7793 72.0742C30.5527 71.7578 30.3828 71.4062 30.2695 71.0195C30.1562 70.6328 30.0996 70.2402 30.0996 69.8418V69.332C30.0996 68.7305 30.1602 68.1406 30.2812 67.5625C30.4023 66.9844 30.6113 66.4609 30.9082 65.9922C31.209 65.5234 31.625 65.1504 32.1562 64.873C32.6875 64.5957 33.3652 64.457 34.1895 64.457ZM36.8379 65.8691C36.8379 65.5918 36.9062 65.3379 37.043 65.1074C37.1797 64.877 37.3613 64.6934 37.5879 64.5566C37.8145 64.416 38.0625 64.3457 38.332 64.3457C38.6016 64.3457 38.8477 64.416 39.0703 64.5566C39.293 64.6934 39.4707 64.877 39.6035 65.1074C39.7363 65.3379 39.8027 65.5918 39.8027 65.8691C39.8027 66.1465 39.7363 66.4004 39.6035 66.6309C39.4707 66.8574 39.293 67.0391 39.0703 67.1758C38.8477 67.3086 38.6016 67.375 38.332 67.375C38.0625 67.375 37.8145 67.3086 37.5879 67.1758C37.3613 67.0391 37.1797 66.8574 37.043 66.6309C36.9062 66.4004 36.8379 66.1465 36.8379 65.8691ZM37.5645 65.8691C37.5645 66.084 37.6387 66.2637 37.7871 66.4082C37.9395 66.5527 38.1211 66.625 38.332 66.625C38.543 66.625 38.7188 66.5527 38.8594 66.4082C39.0039 66.2637 39.0762 66.084 39.0762 65.8691C39.0762 65.6504 39.0039 65.4668 38.8594 65.3184C38.7188 65.1699 38.543 65.0957 38.332 65.0957C38.1211 65.0957 37.9395 65.1699 37.7871 65.3184C37.6387 65.4668 37.5645 65.6504 37.5645 65.8691ZM46.6992 70.2871H47.8242C47.7656 70.8262 47.6113 71.3086 47.3613 71.7344C47.1113 72.1602 46.7578 72.498 46.3008 72.748C45.8438 72.9941 45.2734 73.1172 44.5898 73.1172C44.0898 73.1172 43.6348 73.0234 43.2246 72.8359C42.8184 72.6484 42.4688 72.3828 42.1758 72.0391C41.8828 71.6914 41.6562 71.2754 41.4961 70.791C41.3398 70.3027 41.2617 69.7598 41.2617 69.1621V68.3125C41.2617 67.7148 41.3398 67.1738 41.4961 66.6895C41.6562 66.2012 41.8848 65.7832 42.1816 65.4355C42.4824 65.0879 42.8438 64.8203 43.2656 64.6328C43.6875 64.4453 44.1621 64.3516 44.6895 64.3516C45.334 64.3516 45.8789 64.4727 46.3242 64.7148C46.7695 64.957 47.1152 65.293 47.3613 65.7227C47.6113 66.1484 47.7656 66.6426 47.8242 67.2051H46.6992C46.6445 66.8066 46.543 66.4648 46.3945 66.1797C46.2461 65.8906 46.0352 65.668 45.7617 65.5117C45.4883 65.3555 45.1309 65.2773 44.6895 65.2773C44.3105 65.2773 43.9766 65.3496 43.6875 65.4941C43.4023 65.6387 43.1621 65.8438 42.9668 66.1094C42.7754 66.375 42.6309 66.6934 42.5332 67.0645C42.4355 67.4355 42.3867 67.8477 42.3867 68.3008V69.1621C42.3867 69.5801 42.4297 69.9727 42.5156 70.3398C42.6055 70.707 42.7402 71.0293 42.9199 71.3066C43.0996 71.584 43.3281 71.8027 43.6055 71.9629C43.8828 72.1191 44.2109 72.1973 44.5898 72.1973C45.0703 72.1973 45.4531 72.1211 45.7383 71.9688C46.0234 71.8164 46.2383 71.5977 46.3828 71.3125C46.5312 71.0273 46.6367 70.6855 46.6992 70.2871Z" fill="#94A3B8"/>
<path d="M56.375 122H542" stroke="#E2E8F0" stroke-dasharray="2 2"/>
<path d="M28.8691 125.109V126H23.2852V125.221L26.0801 122.109C26.4238 121.727 26.6895 121.402 26.877 121.137C27.0684 120.867 27.2012 120.627 27.2754 120.416C27.3535 120.201 27.3926 119.982 27.3926 119.76C27.3926 119.479 27.334 119.225 27.2168 118.998C27.1035 118.768 26.9355 118.584 26.7129 118.447C26.4902 118.311 26.2207 118.242 25.9043 118.242C25.5254 118.242 25.209 118.316 24.9551 118.465C24.7051 118.609 24.5176 118.812 24.3926 119.074C24.2676 119.336 24.2051 119.637 24.2051 119.977H23.1211C23.1211 119.496 23.2266 119.057 23.4375 118.658C23.6484 118.26 23.9609 117.943 24.375 117.709C24.7891 117.471 25.2988 117.352 25.9043 117.352C26.4434 117.352 26.9043 117.447 27.2871 117.639C27.6699 117.826 27.9629 118.092 28.166 118.436C28.373 118.775 28.4766 119.174 28.4766 119.631C28.4766 119.881 28.4336 120.135 28.3477 120.393C28.2656 120.646 28.1504 120.9 28.002 121.154C27.8574 121.408 27.6875 121.658 27.4922 121.904C27.3008 122.15 27.0957 122.393 26.877 122.631L24.5918 125.109H28.8691ZM35.6191 125.109V126H30.0352V125.221L32.8301 122.109C33.1738 121.727 33.4395 121.402 33.627 121.137C33.8184 120.867 33.9512 120.627 34.0254 120.416C34.1035 120.201 34.1426 119.982 34.1426 119.76C34.1426 119.479 34.084 119.225 33.9668 118.998C33.8535 118.768 33.6855 118.584 33.4629 118.447C33.2402 118.311 32.9707 118.242 32.6543 118.242C32.2754 118.242 31.959 118.316 31.7051 118.465C31.4551 118.609 31.2676 118.812 31.1426 119.074C31.0176 119.336 30.9551 119.637 30.9551 119.977H29.8711C29.8711 119.496 29.9766 119.057 30.1875 118.658C30.3984 118.26 30.7109 117.943 31.125 117.709C31.5391 117.471 32.0488 117.352 32.6543 117.352C33.1934 117.352 33.6543 117.447 34.0371 117.639C34.4199 117.826 34.7129 118.092 34.916 118.436C35.123 118.775 35.2266 119.174 35.2266 119.631C35.2266 119.881 35.1836 120.135 35.0977 120.393C35.0156 120.646 34.9004 120.9 34.752 121.154C34.6074 121.408 34.4375 121.658 34.2422 121.904C34.0508 122.15 33.8457 122.393 33.627 122.631L31.3418 125.109H35.6191ZM36.8379 118.869C36.8379 118.592 36.9062 118.338 37.043 118.107C37.1797 117.877 37.3613 117.693 37.5879 117.557C37.8145 117.416 38.0625 117.346 38.332 117.346C38.6016 117.346 38.8477 117.416 39.0703 117.557C39.293 117.693 39.4707 117.877 39.6035 118.107C39.7363 118.338 39.8027 118.592 39.8027 118.869C39.8027 119.146 39.7363 119.4 39.6035 119.631C39.4707 119.857 39.293 120.039 39.0703 120.176C38.8477 120.309 38.6016 120.375 38.332 120.375C38.0625 120.375 37.8145 120.309 37.5879 120.176C37.3613 120.039 37.1797 119.857 37.043 119.631C36.9062 119.4 36.8379 119.146 36.8379 118.869ZM37.5645 118.869C37.5645 119.084 37.6387 119.264 37.7871 119.408C37.9395 119.553 38.1211 119.625 38.332 119.625C38.543 119.625 38.7188 119.553 38.8594 119.408C39.0039 119.264 39.0762 119.084 39.0762 118.869C39.0762 118.65 39.0039 118.467 38.8594 118.318C38.7188 118.17 38.543 118.096 38.332 118.096C38.1211 118.096 37.9395 118.17 37.7871 118.318C37.6387 118.467 37.5645 118.65 37.5645 118.869ZM46.6992 123.287H47.8242C47.7656 123.826 47.6113 124.309 47.3613 124.734C47.1113 125.16 46.7578 125.498 46.3008 125.748C45.8438 125.994 45.2734 126.117 44.5898 126.117C44.0898 126.117 43.6348 126.023 43.2246 125.836C42.8184 125.648 42.4688 125.383 42.1758 125.039C41.8828 124.691 41.6562 124.275 41.4961 123.791C41.3398 123.303 41.2617 122.76 41.2617 122.162V121.312C41.2617 120.715 41.3398 120.174 41.4961 119.689C41.6562 119.201 41.8848 118.783 42.1816 118.436C42.4824 118.088 42.8438 117.82 43.2656 117.633C43.6875 117.445 44.1621 117.352 44.6895 117.352C45.334 117.352 45.8789 117.473 46.3242 117.715C46.7695 117.957 47.1152 118.293 47.3613 118.723C47.6113 119.148 47.7656 119.643 47.8242 120.205H46.6992C46.6445 119.807 46.543 119.465 46.3945 119.18C46.2461 118.891 46.0352 118.668 45.7617 118.512C45.4883 118.355 45.1309 118.277 44.6895 118.277C44.3105 118.277 43.9766 118.35 43.6875 118.494C43.4023 118.639 43.1621 118.844 42.9668 119.109C42.7754 119.375 42.6309 119.693 42.5332 120.064C42.4355 120.436 42.3867 120.848 42.3867 121.301V122.162C42.3867 122.58 42.4297 122.973 42.5156 123.34C42.6055 123.707 42.7402 124.029 42.9199 124.307C43.0996 124.584 43.3281 124.803 43.6055 124.963C43.8828 125.119 44.2109 125.197 44.5898 125.197C45.0703 125.197 45.4531 125.121 45.7383 124.969C46.0234 124.816 46.2383 124.598 46.3828 124.312C46.5312 124.027 46.6367 123.686 46.6992 123.287Z" fill="#94A3B8"/>
<path d="M56.375 174H542.375" stroke="#1D4ED8" stroke-dasharray="2 2"/>
<path d="M26.8418 169.422V178H25.7578V170.775L23.5723 171.572V170.594L26.6719 169.422H26.8418ZM35.4082 175.691C35.4082 176.211 35.2871 176.652 35.0449 177.016C34.8066 177.375 34.4824 177.648 34.0723 177.836C33.666 178.023 33.207 178.117 32.6953 178.117C32.1836 178.117 31.7227 178.023 31.3125 177.836C30.9023 177.648 30.5781 177.375 30.3398 177.016C30.1016 176.652 29.9824 176.211 29.9824 175.691C29.9824 175.352 30.0469 175.041 30.1758 174.76C30.3086 174.475 30.4941 174.227 30.7324 174.016C30.9746 173.805 31.2598 173.643 31.5879 173.529C31.9199 173.412 32.2852 173.354 32.6836 173.354C33.207 173.354 33.6738 173.455 34.084 173.658C34.4941 173.857 34.8164 174.133 35.0508 174.484C35.2891 174.836 35.4082 175.238 35.4082 175.691ZM34.3184 175.668C34.3184 175.352 34.25 175.072 34.1133 174.83C33.9766 174.584 33.7852 174.393 33.5391 174.256C33.293 174.119 33.0078 174.051 32.6836 174.051C32.3516 174.051 32.0645 174.119 31.8223 174.256C31.584 174.393 31.3984 174.584 31.2656 174.83C31.1328 175.072 31.0664 175.352 31.0664 175.668C31.0664 175.996 31.1309 176.277 31.2598 176.512C31.3926 176.742 31.5801 176.92 31.8223 177.045C32.0684 177.166 32.3594 177.227 32.6953 177.227C33.0312 177.227 33.3203 177.166 33.5625 177.045C33.8047 176.92 33.9902 176.742 34.1191 176.512C34.252 176.277 34.3184 175.996 34.3184 175.668ZM35.209 171.689C35.209 172.104 35.0996 172.477 34.8809 172.809C34.6621 173.141 34.3633 173.402 33.9844 173.594C33.6055 173.785 33.1758 173.881 32.6953 173.881C32.207 173.881 31.7715 173.785 31.3887 173.594C31.0098 173.402 30.7129 173.141 30.498 172.809C30.2832 172.477 30.1758 172.104 30.1758 171.689C30.1758 171.193 30.2832 170.771 30.498 170.424C30.7168 170.076 31.0156 169.811 31.3945 169.627C31.7734 169.443 32.2051 169.352 32.6895 169.352C33.1777 169.352 33.6113 169.443 33.9902 169.627C34.3691 169.811 34.666 170.076 34.8809 170.424C35.0996 170.771 35.209 171.193 35.209 171.689ZM34.125 171.707C34.125 171.422 34.0645 171.17 33.9434 170.951C33.8223 170.732 33.6543 170.561 33.4395 170.436C33.2246 170.307 32.9746 170.242 32.6895 170.242C32.4043 170.242 32.1543 170.303 31.9395 170.424C31.7285 170.541 31.5625 170.709 31.4414 170.928C31.3242 171.146 31.2656 171.406 31.2656 171.707C31.2656 172 31.3242 172.256 31.4414 172.475C31.5625 172.693 31.7305 172.863 31.9453 172.984C32.1602 173.105 32.4102 173.166 32.6953 173.166C32.9805 173.166 33.2285 173.105 33.4395 172.984C33.6543 172.863 33.8223 172.693 33.9434 172.475C34.0645 172.256 34.125 172 34.125 171.707ZM36.8379 170.869C36.8379 170.592 36.9062 170.338 37.043 170.107C37.1797 169.877 37.3613 169.693 37.5879 169.557C37.8145 169.416 38.0625 169.346 38.332 169.346C38.6016 169.346 38.8477 169.416 39.0703 169.557C39.293 169.693 39.4707 169.877 39.6035 170.107C39.7363 170.338 39.8027 170.592 39.8027 170.869C39.8027 171.146 39.7363 171.4 39.6035 171.631C39.4707 171.857 39.293 172.039 39.0703 172.176C38.8477 172.309 38.6016 172.375 38.332 172.375C38.0625 172.375 37.8145 172.309 37.5879 172.176C37.3613 172.039 37.1797 171.857 37.043 171.631C36.9062 171.4 36.8379 171.146 36.8379 170.869ZM37.5645 170.869C37.5645 171.084 37.6387 171.264 37.7871 171.408C37.9395 171.553 38.1211 171.625 38.332 171.625C38.543 171.625 38.7188 171.553 38.8594 171.408C39.0039 171.264 39.0762 171.084 39.0762 170.869C39.0762 170.65 39.0039 170.467 38.8594 170.318C38.7188 170.17 38.543 170.096 38.332 170.096C38.1211 170.096 37.9395 170.17 37.7871 170.318C37.6387 170.467 37.5645 170.65 37.5645 170.869ZM46.6992 175.287H47.8242C47.7656 175.826 47.6113 176.309 47.3613 176.734C47.1113 177.16 46.7578 177.498 46.3008 177.748C45.8438 177.994 45.2734 178.117 44.5898 178.117C44.0898 178.117 43.6348 178.023 43.2246 177.836C42.8184 177.648 42.4688 177.383 42.1758 177.039C41.8828 176.691 41.6562 176.275 41.4961 175.791C41.3398 175.303 41.2617 174.76 41.2617 174.162V173.312C41.2617 172.715 41.3398 172.174 41.4961 171.689C41.6562 171.201 41.8848 170.783 42.1816 170.436C42.4824 170.088 42.8438 169.82 43.2656 169.633C43.6875 169.445 44.1621 169.352 44.6895 169.352C45.334 169.352 45.8789 169.473 46.3242 169.715C46.7695 169.957 47.1152 170.293 47.3613 170.723C47.6113 171.148 47.7656 171.643 47.8242 172.205H46.6992C46.6445 171.807 46.543 171.465 46.3945 171.18C46.2461 170.891 46.0352 170.668 45.7617 170.512C45.4883 170.355 45.1309 170.277 44.6895 170.277C44.3105 170.277 43.9766 170.35 43.6875 170.494C43.4023 170.639 43.1621 170.844 42.9668 171.109C42.7754 171.375 42.6309 171.693 42.5332 172.064C42.4355 172.436 42.3867 172.848 42.3867 173.301V174.162C42.3867 174.58 42.4297 174.973 42.5156 175.34C42.6055 175.707 42.7402 176.029 42.9199 176.307C43.0996 176.584 43.3281 176.803 43.6055 176.963C43.8828 177.119 44.2109 177.197 44.5898 177.197C45.0703 177.197 45.4531 177.121 45.7383 176.969C46.0234 176.816 46.2383 176.598 46.3828 176.312C46.5312 176.027 46.6367 175.686 46.6992 175.287Z" fill="#94A3B8"/>
<path d="M56 146H552" stroke="#57C9FF" stroke-dasharray="2 2"/>
<path d="M50.5 227.2H448" stroke="#E2E8F0" stroke-dasharray="2 2"/>
<path d="M20.9668 222.622V231.2H19.8828V223.975L17.6973 224.772V223.794L20.7969 222.622H20.9668ZM29.9199 228.329V229.219H23.7559V228.581L27.5762 222.669H28.4609L27.5117 224.38L24.9863 228.329H29.9199ZM28.7305 222.669V231.2H27.6465V222.669H28.7305ZM30.9629 224.069C30.9629 223.792 31.0312 223.538 31.168 223.307C31.3047 223.077 31.4863 222.893 31.7129 222.757C31.9395 222.616 32.1875 222.546 32.457 222.546C32.7266 222.546 32.9727 222.616 33.1953 222.757C33.418 222.893 33.5957 223.077 33.7285 223.307C33.8613 223.538 33.9277 223.792 33.9277 224.069C33.9277 224.346 33.8613 224.6 33.7285 224.831C33.5957 225.057 33.418 225.239 33.1953 225.376C32.9727 225.509 32.7266 225.575 32.457 225.575C32.1875 225.575 31.9395 225.509 31.7129 225.376C31.4863 225.239 31.3047 225.057 31.168 224.831C31.0312 224.6 30.9629 224.346 30.9629 224.069ZM31.6895 224.069C31.6895 224.284 31.7637 224.464 31.9121 224.608C32.0645 224.753 32.2461 224.825 32.457 224.825C32.668 224.825 32.8438 224.753 32.9844 224.608C33.1289 224.464 33.2012 224.284 33.2012 224.069C33.2012 223.85 33.1289 223.667 32.9844 223.518C32.8438 223.37 32.668 223.296 32.457 223.296C32.2461 223.296 32.0645 223.37 31.9121 223.518C31.7637 223.667 31.6895 223.85 31.6895 224.069ZM40.8242 228.487H41.9492C41.8906 229.026 41.7363 229.509 41.4863 229.934C41.2363 230.36 40.8828 230.698 40.4258 230.948C39.9688 231.194 39.3984 231.317 38.7148 231.317C38.2148 231.317 37.7598 231.223 37.3496 231.036C36.9434 230.848 36.5938 230.583 36.3008 230.239C36.0078 229.891 35.7812 229.475 35.6211 228.991C35.4648 228.503 35.3867 227.96 35.3867 227.362V226.512C35.3867 225.915 35.4648 225.374 35.6211 224.889C35.7812 224.401 36.0098 223.983 36.3066 223.635C36.6074 223.288 36.9688 223.02 37.3906 222.833C37.8125 222.645 38.2871 222.552 38.8145 222.552C39.459 222.552 40.0039 222.673 40.4492 222.915C40.8945 223.157 41.2402 223.493 41.4863 223.923C41.7363 224.348 41.8906 224.843 41.9492 225.405H40.8242C40.7695 225.007 40.668 224.665 40.5195 224.38C40.3711 224.091 40.1602 223.868 39.8867 223.712C39.6133 223.555 39.2559 223.477 38.8145 223.477C38.4355 223.477 38.1016 223.55 37.8125 223.694C37.5273 223.839 37.2871 224.044 37.0918 224.309C36.9004 224.575 36.7559 224.893 36.6582 225.264C36.5605 225.635 36.5117 226.048 36.5117 226.501V227.362C36.5117 227.78 36.5547 228.173 36.6406 228.54C36.7305 228.907 36.8652 229.229 37.0449 229.507C37.2246 229.784 37.4531 230.003 37.7305 230.163C38.0078 230.319 38.3359 230.397 38.7148 230.397C39.1953 230.397 39.5781 230.321 39.8633 230.169C40.1484 230.016 40.3633 229.798 40.5078 229.512C40.6562 229.227 40.7617 228.885 40.8242 228.487Z" fill="#94A3B8"/>
<path d="M57 280H552" stroke="#CBD5E1"/>
<path d="M27.4668 275.422V284H26.3828V276.775L24.1973 277.572V276.594L27.2969 275.422H27.4668ZM36.0098 279.055V280.355C36.0098 281.055 35.9473 281.645 35.8223 282.125C35.6973 282.605 35.5176 282.992 35.2832 283.285C35.0488 283.578 34.7656 283.791 34.4336 283.924C34.1055 284.053 33.7344 284.117 33.3203 284.117C32.9922 284.117 32.6895 284.076 32.4121 283.994C32.1348 283.912 31.8848 283.781 31.6621 283.602C31.4434 283.418 31.2559 283.18 31.0996 282.887C30.9434 282.594 30.8242 282.238 30.7422 281.82C30.6602 281.402 30.6191 280.914 30.6191 280.355V279.055C30.6191 278.355 30.6816 277.77 30.8066 277.297C30.9355 276.824 31.1172 276.445 31.3516 276.16C31.5859 275.871 31.8672 275.664 32.1953 275.539C32.5273 275.414 32.8984 275.352 33.3086 275.352C33.6406 275.352 33.9453 275.393 34.2227 275.475C34.5039 275.553 34.7539 275.68 34.9727 275.855C35.1914 276.027 35.377 276.258 35.5293 276.547C35.6855 276.832 35.8047 277.182 35.8867 277.596C35.9688 278.01 36.0098 278.496 36.0098 279.055ZM34.9199 280.531V278.873C34.9199 278.49 34.8965 278.154 34.8496 277.865C34.8066 277.572 34.7422 277.322 34.6562 277.115C34.5703 276.908 34.4609 276.74 34.3281 276.611C34.1992 276.482 34.0488 276.389 33.877 276.33C33.709 276.268 33.5195 276.236 33.3086 276.236C33.0508 276.236 32.8223 276.285 32.623 276.383C32.4238 276.477 32.2559 276.627 32.1191 276.834C31.9863 277.041 31.8848 277.312 31.8145 277.648C31.7441 277.984 31.709 278.393 31.709 278.873V280.531C31.709 280.914 31.7305 281.252 31.7734 281.545C31.8203 281.838 31.8887 282.092 31.9785 282.307C32.0684 282.518 32.1777 282.691 32.3066 282.828C32.4355 282.965 32.584 283.066 32.752 283.133C32.9238 283.195 33.1133 283.227 33.3203 283.227C33.5859 283.227 33.8184 283.176 34.0176 283.074C34.2168 282.973 34.3828 282.814 34.5156 282.6C34.6523 282.381 34.7539 282.102 34.8203 281.762C34.8867 281.418 34.9199 281.008 34.9199 280.531ZM37.4629 276.869C37.4629 276.592 37.5312 276.338 37.668 276.107C37.8047 275.877 37.9863 275.693 38.2129 275.557C38.4395 275.416 38.6875 275.346 38.957 275.346C39.2266 275.346 39.4727 275.416 39.6953 275.557C39.918 275.693 40.0957 275.877 40.2285 276.107C40.3613 276.338 40.4277 276.592 40.4277 276.869C40.4277 277.146 40.3613 277.4 40.2285 277.631C40.0957 277.857 39.918 278.039 39.6953 278.176C39.4727 278.309 39.2266 278.375 38.957 278.375C38.6875 278.375 38.4395 278.309 38.2129 278.176C37.9863 278.039 37.8047 277.857 37.668 277.631C37.5312 277.4 37.4629 277.146 37.4629 276.869ZM38.1895 276.869C38.1895 277.084 38.2637 277.264 38.4121 277.408C38.5645 277.553 38.7461 277.625 38.957 277.625C39.168 277.625 39.3438 277.553 39.4844 277.408C39.6289 277.264 39.7012 277.084 39.7012 276.869C39.7012 276.65 39.6289 276.467 39.4844 276.318C39.3438 276.17 39.168 276.096 38.957 276.096C38.7461 276.096 38.5645 276.17 38.4121 276.318C38.2637 276.467 38.1895 276.65 38.1895 276.869ZM47.3242 281.287H48.4492C48.3906 281.826 48.2363 282.309 47.9863 282.734C47.7363 283.16 47.3828 283.498 46.9258 283.748C46.4688 283.994 45.8984 284.117 45.2148 284.117C44.7148 284.117 44.2598 284.023 43.8496 283.836C43.4434 283.648 43.0938 283.383 42.8008 283.039C42.5078 282.691 42.2812 282.275 42.1211 281.791C41.9648 281.303 41.8867 280.76 41.8867 280.162V279.312C41.8867 278.715 41.9648 278.174 42.1211 277.689C42.2812 277.201 42.5098 276.783 42.8066 276.436C43.1074 276.088 43.4688 275.82 43.8906 275.633C44.3125 275.445 44.7871 275.352 45.3145 275.352C45.959 275.352 46.5039 275.473 46.9492 275.715C47.3945 275.957 47.7402 276.293 47.9863 276.723C48.2363 277.148 48.3906 277.643 48.4492 278.205H47.3242C47.2695 277.807 47.168 277.465 47.0195 277.18C46.8711 276.891 46.6602 276.668 46.3867 276.512C46.1133 276.355 45.7559 276.277 45.3145 276.277C44.9355 276.277 44.6016 276.35 44.3125 276.494C44.0273 276.639 43.7871 276.844 43.5918 277.109C43.4004 277.375 43.2559 277.693 43.1582 278.064C43.0605 278.436 43.0117 278.848 43.0117 279.301V280.162C43.0117 280.58 43.0547 280.973 43.1406 281.34C43.2305 281.707 43.3652 282.029 43.5449 282.307C43.7246 282.584 43.9531 282.803 44.2305 282.963C44.5078 283.119 44.8359 283.197 45.2148 283.197C45.6953 283.197 46.0781 283.121 46.3633 282.969C46.6484 282.816 46.8633 282.598 47.0078 282.312C47.1562 282.027 47.2617 281.686 47.3242 281.287Z" fill="#94A3B8"/>
<mask id="mask0_374_6636" style="mask-type:alpha" maskUnits="userSpaceOnUse" x="62" y="146" width="396" height="28">
<path d="M62 174H458V146.5H62V174Z" fill="#D9D9D9"/>
</mask>
<g mask="url(#mask0_374_6636)">
<path d="M177.767 200.729C272.607 241.663 552 250.488 552 250.488V284H52.5405V22C52.5405 22 76.0226 156.814 177.767 200.729Z" fill="url(#paint0_linear_374_6636)"/>
<path d="M552 251C552 251 272.607 243.639 177.767 201.189C76.0226 155.649 52.5405 22 52.5405 22" stroke="#57C9FF" stroke-width="2" stroke-linejoin="round"/>
</g>
<mask id="mask1_374_6636" style="mask-type:alpha" maskUnits="userSpaceOnUse" x="62" y="15" width="396" height="132">
<path d="M62 146.5H458V15H62V146.5Z" fill="#D9D9D9"/>
</mask>
<g mask="url(#mask1_374_6636)">
<path d="M177.767 200.729C272.607 241.663 552 250.488 552 250.488V284H52.5405V22C52.5405 22 76.0226 156.814 177.767 200.729Z" fill="url(#paint1_linear_374_6636)"/>
<path d="M552 251C552 251 272.607 243.639 177.767 201.189C76.0226 155.649 52.5405 22 52.5405 22" stroke="#16A34A" stroke-width="2" stroke-linejoin="round"/>
</g>
<mask id="mask2_374_6636" style="mask-type:alpha" maskUnits="userSpaceOnUse" x="62" y="174" width="490" height="90">
<rect x="62" y="174" width="490" height="90" fill="#D9D9D9"/>
</mask>
<g mask="url(#mask2_374_6636)">
<path d="M177.767 200.729C272.607 241.664 552 250.488 552 250.488V284H52.5405V22C52.5405 22 76.0226 156.814 177.767 200.729Z" fill="url(#paint2_linear_374_6636)"/>
<path d="M552 251C552 251 272.607 243.639 177.767 201.189C76.0225 155.649 52.5405 22 52.5405 22" stroke="#1D4ED8" stroke-width="2" stroke-linejoin="round"/>
</g>
<defs>
<linearGradient id="paint0_linear_374_6636" x1="302.27" y1="22" x2="302.27" y2="284" gradientUnits="userSpaceOnUse">
<stop stop-color="#57C9FF" stop-opacity="0.2"/>
<stop offset="1" stop-color="#57C9FF" stop-opacity="0"/>
</linearGradient>
<linearGradient id="paint1_linear_374_6636" x1="302.27" y1="22" x2="302.27" y2="284" gradientUnits="userSpaceOnUse">
<stop stop-color="#16A34A" stop-opacity="0.2"/>
<stop offset="1" stop-color="#16A34A" stop-opacity="0"/>
</linearGradient>
<linearGradient id="paint2_linear_374_6636" x1="302.27" y1="22" x2="302.27" y2="284" gradientUnits="userSpaceOnUse">
<stop stop-color="#1D4ED8" stop-opacity="0.2"/>
<stop offset="1" stop-color="#1D4ED8" stop-opacity="0"/>
</linearGradient>
</defs>
</svg>
