<svg width="36" height="36" viewBox="0 0 52 52" fill="none" xmlns="http://www.w3.org/2000/svg">
<g clip-path="url(#clip0_29_1836)">
<mask id="mask0_29_1836" style="mask-type:luminance" maskUnits="userSpaceOnUse" x="0" y="0" width="52" height="52">
<path d="M52 0H0V52H52V0Z" fill="white"/>
</mask>
<g mask="url(#mask0_29_1836)">
<path d="M46.5833 21.6667C46.5833 14.487 40.763 8.66669 33.5833 8.66669C26.4036 8.66669 20.5833 14.487 20.5833 21.6667C20.5833 28.8464 26.4036 34.6667 33.5833 34.6667C40.763 34.6667 46.5833 28.8464 46.5833 21.6667Z" fill="#60A5FA"/>
<path d="M46.3125 21.6667C46.3125 14.6365 40.6135 8.9375 33.5834 8.9375C26.5532 8.9375 20.8542 14.6365 20.8542 21.6667C20.8542 28.6968 26.5532 34.3958 33.5834 34.3958C40.6135 34.3958 46.3125 28.6968 46.3125 21.6667Z" stroke="white" stroke-opacity="0.3" stroke-width="0.541667" stroke-miterlimit="10"/>
<path d="M12.9999 42.25C11.0816 42.2516 9.23406 41.526 7.8294 40.2197C6.42474 38.9133 5.56737 37.1231 5.43 35.2097C5.29264 33.2964 5.88549 31.4021 7.08913 29.9085C8.29277 28.4148 10.0177 27.4328 11.9165 27.1603V27.0834C11.9159 25.4014 12.4745 23.7669 13.5045 22.4371C14.5344 21.1073 15.9772 20.1576 17.606 19.7376C19.2347 19.3175 20.9568 19.4508 22.5014 20.1166C24.0461 20.7823 25.3256 21.9427 26.1385 23.4152C27.0763 22.9944 28.0897 22.7684 29.1173 22.751C30.145 22.7335 31.1655 22.9249 32.117 23.3136C33.0684 23.7022 33.9311 24.2801 34.6526 25.0121C35.3741 25.7441 35.9394 26.615 36.3143 27.572C37.3535 27.1797 38.4663 27.0205 39.5738 27.1057C40.6814 27.1909 41.7567 27.5184 42.7237 28.065C43.6907 28.6115 44.5259 29.3639 45.1701 30.2688C45.8143 31.1738 46.2518 32.2092 46.4517 33.3019C46.6517 34.3946 46.6091 35.5178 46.327 36.5922C46.045 37.6666 45.5303 38.666 44.8195 39.5195C44.1087 40.3731 43.219 41.0601 42.2133 41.5319C41.2077 42.0038 40.1107 42.2489 38.9999 42.25H12.9999Z" fill="#7DD3FC" fill-opacity="0.7"/>
<path d="M38.9998 41.7084C42.8826 41.7084 46.0415 38.5495 46.0415 34.6667C46.0415 30.7839 42.8826 27.6251 38.9998 27.6251C38.1411 27.6251 37.3022 27.7777 36.5064 28.0787L36.0054 28.2683L35.8103 27.7694C35.3 26.4647 34.4196 25.3505 33.2643 24.5473C32.0828 23.7259 30.6946 23.2917 29.2498 23.2917C28.2432 23.2917 27.2713 23.4995 26.361 23.9093L25.9063 24.114L25.6648 23.6778C24.423 21.435 22.0607 20.0417 19.4998 20.0417C15.6182 20.0417 12.4601 23.1986 12.4582 27.0798L12.4592 27.1525L12.4659 27.6289L11.9942 27.6963C10.3334 27.9336 8.80711 28.7638 7.69651 30.0341C6.57553 31.3162 5.95817 32.9615 5.95817 34.6667C5.95817 38.5495 9.11705 41.7084 12.9998 41.7084H38.9998ZM38.9998 42.2501H12.9998C8.81168 42.2501 5.4165 38.8549 5.4165 34.6667C5.4165 30.846 8.24208 27.6852 11.9176 27.16L11.9165 27.0834C11.9165 22.8952 15.3117 19.5001 19.4998 19.5001C22.3575 19.5001 24.846 21.0807 26.1387 23.4154C27.088 22.988 28.1411 22.7501 29.2498 22.7501C32.4637 22.7501 35.2107 24.7494 36.3147 27.5721C37.1492 27.2564 38.0543 27.0834 38.9998 27.0834C43.188 27.0834 46.5832 30.4786 46.5832 34.6667C46.5832 38.8549 43.188 42.2501 38.9998 42.2501Z" fill="white" fill-opacity="0.3"/>
</g>
</g>
<defs>
<clipPath id="clip0_29_1836">
<rect width="52" height="52" fill="white"/>
</clipPath>
</defs>
</svg>
